<svg xmlns="http://www.w3.org/2000/svg" viewBox="0 0 197 96.56"><defs><style>.cls-1{fill:#c69c6d;}.cls-1,.cls-2,.cls-3,.cls-4,.cls-5,.cls-6,.cls-7{stroke:#000;stroke-miterlimit:10;}.cls-2{fill:#8c6239;}.cls-2,.cls-3,.cls-4,.cls-5{stroke-width:0.25px;}.cls-3,.cls-7{fill:#fff;}.cls-4{fill:#fbb03b;}.cls-6{fill:#29abe2;}.cls-6,.cls-7{stroke-width:0.5px;}</style></defs><title>CUPBOARD</title><g id="Layer_2" data-name="Layer 2"><g id="CUPBOARD"><g id="CUPBOARD-2" data-name="CUPBOARD"><rect id="EXTERNAL_PART" class="cls-1" x="32.5" y="0.65" width="66" height="62.4"/><rect id="INTERNAL_PART" class="cls-2" x="38" y="5.85" width="55" height="52"/><polyline class="cls-1" points="32.5 63.35 0.5 95.35 0.5 32.35 32.5 0.35"/><rect id="EXTERNAL_PART-2" data-name="EXTERNAL_PART" class="cls-1" x="98.5" y="0.65" width="66" height="62.4"/><rect id="INTERNAL_PART-2" data-name="INTERNAL_PART" class="cls-2" x="104" y="5.85" width="55" height="52"/><polyline class="cls-1" points="164.5 63.35 196.5 95.35 196.5 32.35 164.5 0.35"/><g id="CONSERVE"><g id="CONSERVE-2" data-name="CONSERVE"><rect id="GLASS" class="cls-3" x="44" y="32.85" width="20" height="25" rx="5.5" ry="5.5"/><path id="GLASS-2" data-name="GLASS" class="cls-4" d="M58.5,57.85h-9a5.5,5.5,0,0,1-5.5-5.5v-14H64v14A5.5,5.5,0,0,1,58.5,57.85Z"/><rect id="LID" class="cls-5" x="46" y="28.85" width="16" height="4"/></g><g id="CORN_FLAKES"><g id="Layer_7" data-name="Layer 7"><rect class="cls-6" x="152.13" y="28.98" width="7.22" height="28.88"/><polygon class="cls-6" points="159.34 28.98 152.13 28.98 142.5 19.35 150.92 19.35 159.34 28.98"/><polygon class="cls-7" points="142.5 48.23 152.13 57.85 152.13 28.98 142.5 19.35 142.5 48.23"/></g></g></g></g></g></g></svg>