<svg xmlns="http://www.w3.org/2000/svg" xmlns:xlink="http://www.w3.org/1999/xlink" viewBox="0 0 200 115"><defs><style>.cls-1{fill:#985f40;}.cls-2,.cls-3{fill:#fff;}.cls-3{font-size:12px;font-family:LuckiestGuy-Regular, Luckiest Guy;}.cls-4{letter-spacing:-0.05em;}.cls-5{letter-spacing:-0.01em;}.cls-6{letter-spacing:-0.01em;}</style></defs><title>DASHBOARD - FOOD STOCK</title><g id="Layer_2" data-name="Layer 2"><g id="DASHBOARD"><g id="FOOD_STOCK" data-name="FOOD STOCK"><rect class="cls-1" width="200" height="115"/><g id="FOOD_STOCK_PIC" data-name="FOOD STOCK PIC"><image width="612" height="612" transform="translate(140 13) scale(0.09 0.07)" xlink:href="../../../../../../../../Documents/istockphoto-1147544807-612x612.jpg"/></g><path class="cls-2" d="M49.54,56.48h-2.3l.07-.61h2.3Z"/><path class="cls-2" d="M52.75,58.44v-.28c.63-.06.7-.11.7-.79V55.31c0-.62,0-.66-.63-.76v-.24a6.55,6.55,0,0,0,1.42-.4v3.46c0,.68.07.73.72.79v.28Zm1-5.51a.55.55,0,0,1-.53-.53.54.54,0,0,1,.54-.55.52.52,0,0,1,.51.55A.53.53,0,0,1,53.79,52.93Z"/><path class="cls-2" d="M58.34,58.44v-.28c.58-.06.64-.13.64-.81V55.7c0-.7-.25-1.17-.91-1.17a1.75,1.75,0,0,0-1.11.52v2.34c0,.69.06.71.65.77v.28H55.45v-.28c.66-.07.72-.11.72-.77V55.33c0-.65-.07-.68-.61-.77V54.3a5.67,5.67,0,0,0,1.4-.4v.79l.68-.46a1.53,1.53,0,0,1,.83-.3c.8,0,1.3.59,1.3,1.56v1.9c0,.68.06.71.64.77v.28Z"/><path class="cls-2" d="M62.32,57a.73.73,0,0,0-.33.5c0,.18.17.38.62.38h1.12c.64,0,1.46.21,1.46,1.2a2.45,2.45,0,0,1-2.56,2c-1.13,0-1.74-.66-1.76-1.25a.79.79,0,0,1,.25-.57,9.38,9.38,0,0,1,.82-.72,1.3,1.3,0,0,1-.75-.54.91.91,0,0,1-.12-.43,2.12,2.12,0,0,0,.92-.69Zm.48.1a1.55,1.55,0,0,1-1.7-1.51,1.72,1.72,0,0,1,1.8-1.67,2.05,2.05,0,0,1,1,.25A6.72,6.72,0,0,0,65.2,54l.06.09a1.24,1.24,0,0,1-.37.53c-.15,0-.48,0-.62,0a1.54,1.54,0,0,1,.29.91A1.62,1.62,0,0,1,62.8,57.08ZM63,58.56a1.27,1.27,0,0,0-.89.21,1.15,1.15,0,0,0-.48.82c0,.55.57,1,1.34,1,1,0,1.49-.49,1.49-1.13a.75.75,0,0,0-.44-.73A2.69,2.69,0,0,0,63,58.56Zm-.23-4.34c-.45,0-.85.41-.85,1.2s.4,1.34.95,1.34.83-.39.83-1.2S63.36,54.22,62.8,54.22Z"/><path class="cls-2" d="M68.51,58.44v-.28c1.11-.07,1.17-.12,1.17-.87V53.45c0-.51-.07-.53-.51-.57l-.49-.05v-.25a8.26,8.26,0,0,0,1.83-.49v5.2c0,.76.06.8,1.18.87v.28Z"/><path class="cls-2" d="M49.54,68.48h-2.3l.07-.61h2.3Z"/><path class="cls-2" d="M52.75,70.44v-.28c.63-.06.7-.11.7-.79V67.31c0-.62,0-.66-.63-.76v-.24a6.55,6.55,0,0,0,1.42-.4v3.46c0,.68.07.73.72.79v.28Zm1-5.51a.55.55,0,0,1-.53-.53.54.54,0,0,1,.54-.55.52.52,0,0,1,.51.55A.53.53,0,0,1,53.79,64.93Z"/><path class="cls-2" d="M58.34,70.44v-.28c.58-.06.64-.13.64-.81V67.7c0-.7-.25-1.17-.91-1.17a1.75,1.75,0,0,0-1.11.52v2.34c0,.69.06.71.65.77v.28H55.45v-.28c.66-.07.72-.11.72-.77V67.33c0-.65-.07-.68-.61-.77V66.3a5.67,5.67,0,0,0,1.4-.4v.79l.68-.46a1.53,1.53,0,0,1,.83-.3c.8,0,1.3.59,1.3,1.56v1.9c0,.68.06.71.64.77v.28Z"/><path class="cls-2" d="M62.32,69a.73.73,0,0,0-.33.5c0,.18.17.38.62.38h1.12c.64,0,1.46.21,1.46,1.2a2.45,2.45,0,0,1-2.56,2c-1.13,0-1.74-.66-1.76-1.25a.79.79,0,0,1,.25-.57,9.38,9.38,0,0,1,.82-.72,1.3,1.3,0,0,1-.75-.54.91.91,0,0,1-.12-.43,2.12,2.12,0,0,0,.92-.69Zm.48.1a1.55,1.55,0,0,1-1.7-1.51,1.72,1.72,0,0,1,1.8-1.67,2.05,2.05,0,0,1,1,.25A6.72,6.72,0,0,0,65.2,66l.06.09a1.24,1.24,0,0,1-.37.53c-.15,0-.48,0-.62-.05a1.54,1.54,0,0,1,.29.91A1.62,1.62,0,0,1,62.8,69.08ZM63,70.56a1.27,1.27,0,0,0-.89.21,1.15,1.15,0,0,0-.48.82c0,.55.57,1,1.34,1,1,0,1.49-.49,1.49-1.13a.75.75,0,0,0-.44-.73A2.69,2.69,0,0,0,63,70.56Zm-.23-4.34c-.45,0-.85.41-.85,1.2s.4,1.34.95,1.34.83-.39.83-1.2S63.36,66.22,62.8,66.22Z"/><path class="cls-2" d="M72.1,69.11c-.13.45-.3,1-.4,1.33H67.93V70.2c.55-.54,1.15-1.13,1.64-1.7a4,4,0,0,0,1.23-2.41c0-.83-.44-1.31-1.17-1.31a1.74,1.74,0,0,0-1.38.93L68,65.5l.57-.81a1.81,1.81,0,0,1,1.37-.6,1.63,1.63,0,0,1,1.7,1.73,3.24,3.24,0,0,1-1.26,2.42c-.43.45-1.06,1.06-1.49,1.47h1.91c.54,0,.69,0,1-.68Z"/><path class="cls-2" d="M49.54,80.48h-2.3l.07-.61h2.3Z"/><path class="cls-2" d="M52.75,82.44v-.28c.63-.06.7-.11.7-.79V79.31c0-.62,0-.66-.63-.76v-.24a6.55,6.55,0,0,0,1.42-.4v3.46c0,.68.07.73.72.79v.28Zm1-5.51a.55.55,0,0,1-.53-.53.54.54,0,0,1,.54-.55.52.52,0,0,1,.51.55A.53.53,0,0,1,53.79,76.93Z"/><path class="cls-2" d="M58.34,82.44v-.28c.58-.06.64-.13.64-.81V79.7c0-.7-.25-1.17-.91-1.17a1.75,1.75,0,0,0-1.11.52v2.34c0,.69.06.71.65.77v.28H55.45v-.28c.66-.07.72-.11.72-.77V79.33c0-.65-.07-.68-.61-.77V78.3a5.67,5.67,0,0,0,1.4-.4v.79l.68-.46a1.53,1.53,0,0,1,.83-.3c.8,0,1.3.59,1.3,1.56v1.9c0,.68.06.71.64.77v.28Z"/><path class="cls-2" d="M62.32,81a.73.73,0,0,0-.33.5c0,.18.17.38.62.38h1.12c.64,0,1.46.21,1.46,1.2a2.45,2.45,0,0,1-2.56,2c-1.13,0-1.74-.66-1.76-1.25a.79.79,0,0,1,.25-.57,9.38,9.38,0,0,1,.82-.72,1.3,1.3,0,0,1-.75-.54.91.91,0,0,1-.12-.43,2.12,2.12,0,0,0,.92-.69Zm.48.1a1.55,1.55,0,0,1-1.7-1.51,1.72,1.72,0,0,1,1.8-1.67,2.05,2.05,0,0,1,1,.25A6.72,6.72,0,0,0,65.2,78l.06.09a1.24,1.24,0,0,1-.37.53c-.15,0-.48,0-.62-.05a1.54,1.54,0,0,1,.29.91A1.62,1.62,0,0,1,62.8,81.08ZM63,82.56a1.27,1.27,0,0,0-.89.21,1.15,1.15,0,0,0-.48.82c0,.55.57,1,1.34,1,1,0,1.49-.49,1.49-1.13a.75.75,0,0,0-.44-.73A2.69,2.69,0,0,0,63,82.56Zm-.23-4.34c-.45,0-.85.41-.85,1.2s.4,1.34.95,1.34.83-.39.83-1.2S63.36,78.22,62.8,78.22Z"/><path class="cls-2" d="M68.15,77.29l.47-.63a1.75,1.75,0,0,1,1.29-.57,1.37,1.37,0,0,1,1.51,1.33,1.09,1.09,0,0,1-.31.74,4.2,4.2,0,0,1-.71.54,1.65,1.65,0,0,1,1.48,1.54c0,1.63-1.92,2.32-2.63,2.32a1.62,1.62,0,0,1-1-.35.44.44,0,0,1-.15-.33.59.59,0,0,1,.23-.38.19.19,0,0,1,.26,0,1.84,1.84,0,0,0,1.24.53c.72,0,1.23-.54,1.23-1.51a1.23,1.23,0,0,0-1.32-1.28,2.53,2.53,0,0,0-.67.11l-.07-.3c.89-.29,1.61-.69,1.61-1.43a.87.87,0,0,0-1-.93,1.6,1.6,0,0,0-1.25.79Z"/><path class="cls-2" d="M49.54,92.48h-2.3l.07-.61h2.3Z"/><path class="cls-2" d="M52.75,94.44v-.28c.63-.06.7-.11.7-.79V91.31c0-.62,0-.66-.63-.76v-.24a6.55,6.55,0,0,0,1.42-.4v3.46c0,.68.07.73.72.79v.28Zm1-5.51a.55.55,0,0,1-.53-.53.54.54,0,0,1,.54-.55.52.52,0,0,1,.51.55A.53.53,0,0,1,53.79,88.93Z"/><path class="cls-2" d="M58.34,94.44v-.28c.58-.06.64-.13.64-.81V91.7c0-.7-.25-1.17-.91-1.17a1.75,1.75,0,0,0-1.11.52v2.34c0,.69.06.71.65.77v.28H55.45v-.28c.66-.07.72-.11.72-.77V91.33c0-.65-.07-.68-.61-.77V90.3a5.67,5.67,0,0,0,1.4-.4v.79l.68-.46a1.53,1.53,0,0,1,.83-.3c.8,0,1.3.59,1.3,1.56v1.9c0,.68.06.71.64.77v.28Z"/><path class="cls-2" d="M62.32,93a.73.73,0,0,0-.33.5c0,.18.17.38.62.38h1.12c.64,0,1.46.21,1.46,1.2a2.45,2.45,0,0,1-2.56,2c-1.13,0-1.74-.66-1.76-1.25a.79.79,0,0,1,.25-.57,9.38,9.38,0,0,1,.82-.72,1.3,1.3,0,0,1-.75-.54.91.91,0,0,1-.12-.43,2.12,2.12,0,0,0,.92-.69Zm.48.1a1.55,1.55,0,0,1-1.7-1.51,1.72,1.72,0,0,1,1.8-1.67,2.05,2.05,0,0,1,1,.25A6.72,6.72,0,0,0,65.2,90l.06.09a1.24,1.24,0,0,1-.37.53c-.15,0-.48,0-.62-.05a1.54,1.54,0,0,1,.29.91A1.62,1.62,0,0,1,62.8,93.08ZM63,94.56a1.27,1.27,0,0,0-.89.21,1.15,1.15,0,0,0-.48.82c0,.55.57,1,1.34,1,1,0,1.49-.49,1.49-1.13a.75.75,0,0,0-.44-.73A2.69,2.69,0,0,0,63,94.56Zm-.23-4.34c-.45,0-.85.41-.85,1.2s.4,1.34.95,1.34.83-.39.83-1.2S63.36,90.22,62.8,90.22Z"/><path class="cls-2" d="M71.24,92.62v.76c0,.66,0,.71.85.78v.28H69.55v-.28c.85-.07.9-.13.9-.79v-.75H67.81v-.3c1-1.35,2-2.81,3-4.2h.45v4h1v.48Zm-.79-3.45c-.63.92-1.33,1.94-2,3h2Z"/><path class="cls-2" d="M49.54,104.48h-2.3l.07-.61h2.3Z"/><path class="cls-2" d="M52.75,106.44v-.28c.63-.06.7-.11.7-.79v-2.06c0-.62,0-.66-.63-.76v-.24a6.55,6.55,0,0,0,1.42-.4v3.46c0,.68.07.73.72.79v.28Zm1-5.51a.55.55,0,0,1-.53-.53.54.54,0,0,1,.54-.55.52.52,0,0,1,.51.55A.53.53,0,0,1,53.79,100.93Z"/><path class="cls-2" d="M58.34,106.44v-.28c.58-.06.64-.13.64-.81V103.7c0-.7-.25-1.17-.91-1.17a1.75,1.75,0,0,0-1.11.52v2.34c0,.69.06.71.65.77v.28H55.45v-.28c.66-.07.72-.11.72-.77v-2.06c0-.65-.07-.68-.61-.77v-.26a5.67,5.67,0,0,0,1.4-.4v.79l.68-.46a1.53,1.53,0,0,1,.83-.3c.8,0,1.3.59,1.3,1.56v1.9c0,.68.06.71.64.77v.28Z"/><path class="cls-2" d="M62.32,105a.73.73,0,0,0-.33.5c0,.18.17.38.62.38h1.12c.64,0,1.46.21,1.46,1.2a2.45,2.45,0,0,1-2.56,2c-1.13,0-1.74-.66-1.76-1.25a.79.79,0,0,1,.25-.57,9.38,9.38,0,0,1,.82-.72,1.3,1.3,0,0,1-.75-.54.91.91,0,0,1-.12-.43,2.12,2.12,0,0,0,.92-.69Zm.48.1a1.55,1.55,0,0,1-1.7-1.51,1.72,1.72,0,0,1,1.8-1.67,2.05,2.05,0,0,1,1,.25A6.72,6.72,0,0,0,65.2,102l.06.09a1.24,1.24,0,0,1-.37.53c-.15,0-.48,0-.62-.05a1.54,1.54,0,0,1,.29.91A1.62,1.62,0,0,1,62.8,105.08Zm.23,1.48a1.27,1.27,0,0,0-.89.21,1.15,1.15,0,0,0-.48.82c0,.55.57,1,1.34,1,1,0,1.49-.49,1.49-1.13a.75.75,0,0,0-.44-.73A2.69,2.69,0,0,0,63,106.56Zm-.23-4.34c-.45,0-.85.41-.85,1.2s.4,1.34.95,1.34.83-.39.83-1.2S63.36,102.22,62.8,102.22Z"/><path class="cls-2" d="M71.69,100.21l.06.08-.26.66h-2.3c-.09.55-.22,1.33-.31,1.82a4.67,4.67,0,0,1,1.18-.29,1.75,1.75,0,0,1,1.88,1.7,2.12,2.12,0,0,1-.86,1.68,3.07,3.07,0,0,1-1.77.7,1.49,1.49,0,0,1-1-.39c-.14-.13-.18-.21-.16-.34a.52.52,0,0,1,.21-.34.21.21,0,0,1,.28,0,1.75,1.75,0,0,0,1.26.55,1.31,1.31,0,0,0,1.24-1.47,1.44,1.44,0,0,0-1.64-1.51,3,3,0,0,0-1,.18l0,0c.15-.78.37-2.19.48-3Z"/><text class="cls-3" transform="translate(37.84 36.23)"><tspan class="cls-4">y</tspan><tspan x="6.63" y="0">our </tspan><tspan class="cls-5" x="31.23" y="0">f</tspan><tspan x="36.97" y="0">ood </tspan><tspan class="cls-6" x="61.62" y="0">s</tspan><tspan class="cls-5" x="67.86" y="0">t</tspan><tspan x="74.29" y="0">ock</tspan></text></g></g></g></svg>