<svg xmlns="http://www.w3.org/2000/svg" xmlns:xlink="http://www.w3.org/1999/xlink" viewBox="0 0 200 115"><defs><style>.cls-1{fill:#985f40;}.cls-2,.cls-3{fill:#fff;}.cls-3{font-size:12px;font-family:LuckiestGuy-Regular, Luckiest Guy;}.cls-4{letter-spacing:-0.01em;}.cls-5{letter-spacing:-0.01em;}.cls-6{letter-spacing:-0.05em;}</style></defs><title>DASHBOARD - RECIPES COOKED</title><g id="Layer_2" data-name="Layer 2"><g id="DASHBOARD"><g id="RECIPES_COOKED" data-name="RECIPES COOKED"><rect class="cls-1" width="200" height="115"/><g id="FOOD_STOCK_PIC_copy_2" data-name="FOOD STOCK PIC copy 2"><image width="612" height="612" transform="translate(141 44) scale(0.09 0.07)" xlink:href="../../../../../../../../Documents/istockphoto-1147544807-612x612.jpg"/></g><path class="cls-2" d="M49.54,56.48h-2.3l.07-.61h2.3Z"/><path class="cls-2" d="M58.81,58.52l-.37,0a1.77,1.77,0,0,1-1.56-.86c-.37-.51-.73-1.14-1.05-1.65-.2-.32-.33-.38-.84-.38h-.35v1.57c0,.85.11.9.91,1v.28H52.88v-.28c.83-.09.9-.13.9-1v-4c0-.85-.11-.88-.9-1v-.28h2.55a2.82,2.82,0,0,1,1.6.34,1.49,1.49,0,0,1,.68,1.32,1.85,1.85,0,0,1-1.29,1.72c.18.31.61,1,.91,1.43a9.18,9.18,0,0,0,.79,1,1.44,1.44,0,0,0,.73.46Zm-3.69-3.25a1.61,1.61,0,0,0,1.1-.29,1.41,1.41,0,0,0,.55-1.23,1.35,1.35,0,0,0-1.48-1.46.92.92,0,0,0-.53.1c-.09.07-.12.17-.12.43v2.45Z"/><path class="cls-2" d="M64.39,56.85c-.06.26-.33,1.29-.43,1.59H59.1v-.28c.93-.07,1-.16,1-1v-4c0-.89-.11-.94-.86-1v-.28H62.3c.94,0,1.33,0,1.45,0,0,.25,0,1,.09,1.53l-.3,0a3.33,3.33,0,0,0-.3-.76c-.16-.33-.39-.4-1-.4h-1c-.31,0-.33,0-.33.32v2.21h1.11c.75,0,.8-.15.92-.83h.31V56.1H63c-.13-.72-.21-.82-.93-.82H61v2c0,.7.22.76.72.77h.93c.61,0,.71-.09.93-.35a4.29,4.29,0,0,0,.54-.92Z"/><path class="cls-2" d="M71.09,56.84a12.68,12.68,0,0,1-.55,1.51,9.92,9.92,0,0,1-1.83.24,3.34,3.34,0,0,1-3.61-3.34c0-2.14,1.58-3.45,3.84-3.45a11,11,0,0,1,1.84.23c0,.45.11,1.06.19,1.56l-.31.07a1.8,1.8,0,0,0-1-1.32,2.49,2.49,0,0,0-1-.17A2.59,2.59,0,0,0,66.14,55c0,1.93,1.11,3.17,2.63,3.17,1,0,1.51-.47,2-1.47Z"/><path class="cls-2" d="M72.1,58.44v-.28c.82-.09.9-.13.9-1v-4c0-.86-.08-.9-.9-1v-.28h2.68v.28c-.83.09-.91.13-.91,1v4c0,.86.08.89.91,1v.28Z"/><path class="cls-2" d="M78.33,51.94a2.82,2.82,0,0,1,1.69.43,1.69,1.69,0,0,1,.66,1.42,2.07,2.07,0,0,1-2.2,2.05l-.27,0-.69-.18V57.2c0,.84.07.86,1,1v.28H75.75v-.28c.86-.09.9-.15.9-1v-4c0-.89-.11-.91-.9-1v-.28Zm-.81,3.35a1.82,1.82,0,0,0,.73.13,1.57,1.57,0,0,0-.06-3.14.89.89,0,0,0-.56.12c-.08.07-.11.19-.11.46Z"/><path class="cls-2" d="M86.78,56.85c-.06.26-.33,1.29-.43,1.59H81.49v-.28c.93-.07,1-.16,1-1v-4c0-.89-.11-.94-.86-1v-.28h3.06c.94,0,1.33,0,1.45,0,0,.25,0,1,.09,1.53l-.3,0a3.33,3.33,0,0,0-.3-.76c-.16-.33-.39-.4-1-.4h-1c-.31,0-.33,0-.33.32v2.21h1.11c.75,0,.8-.15.92-.83h.31V56.1h-.31c-.13-.72-.21-.82-.93-.82h-1.1v2c0,.7.22.76.72.77H85c.61,0,.71-.09.93-.35a4.29,4.29,0,0,0,.54-.92Z"/><path class="cls-2" d="M90.27,58.44v-.28c1.11-.07,1.17-.12,1.17-.87V53.45c0-.51-.07-.53-.51-.57l-.49-.05v-.25a8.26,8.26,0,0,0,1.83-.49v5.2c0,.76.06.8,1.18.87v.28Z"/><path class="cls-2" d="M49.54,68.48h-2.3l.07-.61h2.3Z"/><path class="cls-2" d="M58.81,70.52l-.37,0a1.77,1.77,0,0,1-1.56-.86c-.37-.51-.73-1.14-1.05-1.65-.2-.32-.33-.38-.84-.38h-.35v1.57c0,.85.11.9.91,1v.28H52.88v-.28c.83-.09.9-.13.9-1v-4c0-.85-.11-.88-.9-1v-.28h2.55a2.82,2.82,0,0,1,1.6.34,1.49,1.49,0,0,1,.68,1.32,1.85,1.85,0,0,1-1.29,1.72c.18.31.61,1,.91,1.43a9.18,9.18,0,0,0,.79,1,1.44,1.44,0,0,0,.73.46Zm-3.69-3.25a1.61,1.61,0,0,0,1.1-.29,1.41,1.41,0,0,0,.55-1.23,1.35,1.35,0,0,0-1.48-1.46.92.92,0,0,0-.53.1c-.09.07-.12.17-.12.43v2.45Z"/><path class="cls-2" d="M64.39,68.85c-.06.26-.33,1.29-.43,1.59H59.1v-.28c.93-.07,1-.16,1-1v-4c0-.89-.11-.94-.86-1v-.28H62.3c.94,0,1.33,0,1.45,0,0,.25,0,1,.09,1.53l-.3,0a3.33,3.33,0,0,0-.3-.76c-.16-.33-.39-.4-1-.4h-1c-.31,0-.33,0-.33.32v2.21h1.11c.75,0,.8-.15.92-.83h.31V68.1H63c-.13-.72-.21-.82-.93-.82H61v2c0,.7.22.76.72.77h.93c.61,0,.71-.09.93-.35a4.29,4.29,0,0,0,.54-.92Z"/><path class="cls-2" d="M71.09,68.84a12.68,12.68,0,0,1-.55,1.51,9.92,9.92,0,0,1-1.83.24,3.34,3.34,0,0,1-3.61-3.34c0-2.14,1.58-3.45,3.84-3.45a11,11,0,0,1,1.84.23c0,.45.11,1.06.19,1.56l-.31.07a1.8,1.8,0,0,0-1-1.32,2.49,2.49,0,0,0-1-.17A2.59,2.59,0,0,0,66.14,67c0,1.93,1.11,3.17,2.63,3.17,1,0,1.51-.47,2-1.47Z"/><path class="cls-2" d="M72.1,70.44v-.28c.82-.09.9-.13.9-1v-4c0-.86-.08-.9-.9-1v-.28h2.68v.28c-.83.09-.91.13-.91,1v4c0,.86.08.89.91,1v.28Z"/><path class="cls-2" d="M78.33,63.94a2.82,2.82,0,0,1,1.69.43,1.69,1.69,0,0,1,.66,1.42,2.07,2.07,0,0,1-2.2,2l-.27,0-.69-.18V69.2c0,.84.07.86,1,1v.28H75.75v-.28c.86-.09.9-.15.9-1v-4c0-.89-.11-.91-.9-1v-.28Zm-.81,3.35a1.82,1.82,0,0,0,.73.13,1.57,1.57,0,0,0-.06-3.14.89.89,0,0,0-.56.12c-.08.07-.11.19-.11.46Z"/><path class="cls-2" d="M86.78,68.85c-.06.26-.33,1.29-.43,1.59H81.49v-.28c.93-.07,1-.16,1-1v-4c0-.89-.11-.94-.86-1v-.28h3.06c.94,0,1.33,0,1.45,0,0,.25,0,1,.09,1.53l-.3,0a3.33,3.33,0,0,0-.3-.76c-.16-.33-.39-.4-1-.4h-1c-.31,0-.33,0-.33.32v2.21h1.11c.75,0,.8-.15.92-.83h.31V68.1h-.31c-.13-.72-.21-.82-.93-.82h-1.1v2c0,.7.22.76.72.77H85c.61,0,.71-.09.93-.35a4.29,4.29,0,0,0,.54-.92Z"/><path class="cls-2" d="M93.86,69.11c-.13.45-.3,1-.4,1.33H89.69V70.2c.55-.54,1.15-1.13,1.64-1.7a4,4,0,0,0,1.23-2.41c0-.83-.44-1.31-1.17-1.31a1.74,1.74,0,0,0-1.38.93l-.23-.21.57-.81a1.81,1.81,0,0,1,1.37-.6,1.63,1.63,0,0,1,1.7,1.73,3.24,3.24,0,0,1-1.26,2.42c-.43.45-1.06,1.06-1.49,1.47h1.91c.54,0,.69,0,1-.68Z"/><path class="cls-2" d="M49.54,80.48h-2.3l.07-.61h2.3Z"/><path class="cls-2" d="M58.81,82.52l-.37,0a1.77,1.77,0,0,1-1.56-.86c-.37-.51-.73-1.14-1.05-1.65-.2-.32-.33-.38-.84-.38h-.35v1.57c0,.85.11.9.91,1v.28H52.88v-.28c.83-.09.9-.13.9-1v-4c0-.85-.11-.88-.9-1v-.28h2.55a2.82,2.82,0,0,1,1.6.34,1.49,1.49,0,0,1,.68,1.32,1.85,1.85,0,0,1-1.29,1.72c.18.31.61,1,.91,1.43a9.18,9.18,0,0,0,.79,1,1.44,1.44,0,0,0,.73.46Zm-3.69-3.25a1.61,1.61,0,0,0,1.1-.29,1.41,1.41,0,0,0,.55-1.23,1.35,1.35,0,0,0-1.48-1.46.92.92,0,0,0-.53.1c-.09.07-.12.17-.12.43v2.45Z"/><path class="cls-2" d="M64.39,80.85c-.06.26-.33,1.29-.43,1.59H59.1v-.28c.93-.07,1-.16,1-1v-4c0-.89-.11-.94-.86-1v-.28H62.3c.94,0,1.33,0,1.45,0,0,.25,0,1,.09,1.53l-.3,0a3.33,3.33,0,0,0-.3-.76c-.16-.33-.39-.4-1-.4h-1c-.31,0-.33,0-.33.32v2.21h1.11c.75,0,.8-.15.92-.83h.31V80.1H63c-.13-.72-.21-.82-.93-.82H61v2c0,.7.22.76.72.77h.93c.61,0,.71-.09.93-.35a4.29,4.29,0,0,0,.54-.92Z"/><path class="cls-2" d="M71.09,80.84a12.68,12.68,0,0,1-.55,1.51,9.92,9.92,0,0,1-1.83.24,3.34,3.34,0,0,1-3.61-3.34c0-2.14,1.58-3.45,3.84-3.45a11,11,0,0,1,1.84.23c0,.45.11,1.06.19,1.56l-.31.07a1.8,1.8,0,0,0-1-1.32,2.49,2.49,0,0,0-1-.17A2.59,2.59,0,0,0,66.14,79c0,1.93,1.11,3.17,2.63,3.17,1,0,1.51-.47,2-1.47Z"/><path class="cls-2" d="M72.1,82.44v-.28c.82-.09.9-.13.9-1v-4c0-.86-.08-.9-.9-1v-.28h2.68v.28c-.83.09-.91.13-.91,1v4c0,.86.08.89.91,1v.28Z"/><path class="cls-2" d="M78.33,75.94a2.82,2.82,0,0,1,1.69.43,1.69,1.69,0,0,1,.66,1.42,2.07,2.07,0,0,1-2.2,2l-.27,0-.69-.18V81.2c0,.84.07.86,1,1v.28H75.75v-.28c.86-.09.9-.15.9-1v-4c0-.89-.11-.91-.9-1v-.28Zm-.81,3.35a1.82,1.82,0,0,0,.73.13,1.57,1.57,0,0,0-.06-3.14.89.89,0,0,0-.56.12c-.08.07-.11.19-.11.46Z"/><path class="cls-2" d="M86.78,80.85c-.06.26-.33,1.29-.43,1.59H81.49v-.28c.93-.07,1-.16,1-1v-4c0-.89-.11-.94-.86-1v-.28h3.06c.94,0,1.33,0,1.45,0,0,.25,0,1,.09,1.53l-.3,0a3.33,3.33,0,0,0-.3-.76c-.16-.33-.39-.4-1-.4h-1c-.31,0-.33,0-.33.32v2.21h1.11c.75,0,.8-.15.92-.83h.31V80.1h-.31c-.13-.72-.21-.82-.93-.82h-1.1v2c0,.7.22.76.72.77H85c.61,0,.71-.09.93-.35a4.29,4.29,0,0,0,.54-.92Z"/><path class="cls-2" d="M89.91,77.29l.47-.63a1.75,1.75,0,0,1,1.29-.57,1.37,1.37,0,0,1,1.51,1.33,1.09,1.09,0,0,1-.31.74,4.2,4.2,0,0,1-.71.54,1.65,1.65,0,0,1,1.48,1.54c0,1.63-1.92,2.32-2.63,2.32a1.62,1.62,0,0,1-1-.35.44.44,0,0,1-.15-.33.59.59,0,0,1,.23-.38.19.19,0,0,1,.26,0,1.84,1.84,0,0,0,1.24.53c.72,0,1.23-.54,1.23-1.51a1.23,1.23,0,0,0-1.32-1.28,2.53,2.53,0,0,0-.67.11l-.07-.3c.89-.29,1.61-.69,1.61-1.43a.87.87,0,0,0-1-.93,1.6,1.6,0,0,0-1.25.79Z"/><text class="cls-3" transform="translate(46.78 36.23)">R<tspan class="cls-4" x="7.27" y="0">E</tspan><tspan x="12.85" y="0">CIPES </tspan><tspan class="cls-5" x="44.2" y="0">S</tspan><tspan class="cls-6" x="50.48" y="0">A</tspan><tspan x="57.35" y="0">VED</tspan></text></g></g></g></svg>