<svg xmlns="http://www.w3.org/2000/svg" viewBox="0 0 116.18 126.73"><defs><style>.cls-1,.cls-3{fill:none;stroke-miterlimit:10;}.cls-1{stroke:#006837;stroke-width:0.5px;}.cls-2{fill:#f7931e;}.cls-3{stroke:#603813;stroke-width:4px;}.cls-4{fill:#8cc63f;}.cls-5{fill:#fcffe9;}.cls-6{fill:#a67c52;}.cls-7{fill:#ce4e58;}</style></defs><g id="Calque_2" data-name="Calque 2"><g id="INGREDIENTS"><g id="Calque_2-2" data-name="Calque 2"><g id="VEGGIES"><g id="CARROT"><g id="CARROT_LEAF" data-name="CARROT LEAF"><path class="cls-1" d="M52.52,4.87C47.84,7.73,41.83,17.09,40.7,24c9.44-6.1,21-17.73,21-17.73"/><path class="cls-1" d="M50.63,4.87C46,7.73,39.94,17.07,38.82,24c9.42-6.1,21-17.73,21-17.73"/><path class="cls-1" d="M54.69,1.51C50,4.38,44,13.74,42.87,20.67,52.29,14.58,63.82,3,63.82,3"/><path class="cls-1" d="M48.18,9.59C43.53,12.46,37.5,21.82,36.37,28.75c9.42-6.1,21-17.73,21-17.73"/><path class="cls-1" d="M44.8,10.53C40.11,13.4,34.11,22.75,33,29.69,42.4,23.6,53.93,12,53.93,12"/><path class="cls-1" d="M43.49,15.69C38.84,18.55,32.8,27.91,31.67,34.84c9.42-6.1,20.95-17.73,20.95-17.73"/><path class="cls-1" d="M42.68,14.45C38,17.31,32,26.67,30.85,33.6c9.44-6.09,21-17.7,21-17.7"/><path class="cls-1" d="M45.49,12.52c-4.65,2.86-10.68,12.22-11.81,19.15,9.42-6.09,21-17.72,21-17.72"/><path class="cls-1" d="M45.49,12.52c-4.65,2.86-10.68,12.22-11.81,19.15,9.42-6.09,21-17.72,21-17.72"/><path class="cls-1" d="M42.07,14.45c-4.66,2.86-10.69,12.22-11.8,19.15,9.4-6.09,20.93-17.7,20.93-17.7"/><path class="cls-1" d="M45.49,13.68C40.84,16.54,34.81,25.9,33.68,32.83c9.42-6.09,21-17.72,21-17.72"/><path class="cls-1" d="M53.16.21C48.48,3.08,42.47,12.44,41.34,19.37,50.77,13.28,62.29,1.65,62.29,1.65"/><path class="cls-1" d="M42.68,14.45C38,17.31,32,26.67,30.85,33.6c9.44-6.09,21-17.7,21-17.7"/><path class="cls-1" d="M44.22,10.53C39.53,13.4,33.52,22.75,32.4,29.69c9.42-6.09,21-17.72,21-17.72"/><path class="cls-1" d="M44.8,12.52C40.11,15.38,34.11,24.74,33,31.67c9.42-6.09,21-17.72,21-17.72"/><path class="cls-1" d="M45.49,9.79C40.84,12.66,34.81,22,33.68,29c9.42-6.09,21-17.73,21-17.73"/><path class="cls-1" d="M51.48,1.51C46.82,4.38,40.81,13.74,39.64,20.67,49.08,14.58,60.61,3,60.61,3"/><path class="cls-1" d="M45.49,10.53C40.85,13.4,34.81,22.75,33.68,29.69,43.1,23.6,54.63,12,54.63,12"/><path class="cls-1" d="M49.75,8.54C45.1,11.4,39.05,20.76,37.93,27.7c9.42-6.09,21-17.72,21-17.72"/><path class="cls-1" d="M54.69,4.1C50,7,44,16.32,42.87,23.26c9.42-6.1,21-17.73,21-17.73"/><path class="cls-1" d="M52.52,2.94C47.84,5.8,41.83,15.16,40.7,22.1c9.44-6.1,21-17.73,21-17.73"/><path class="cls-1" d="M50.71,6.1C46.08,9,40,18.33,38.9,25.27,48.31,19.16,59.84,7.53,59.84,7.53"/><path class="cls-1" d="M52.52,1C47.84,3.82,41.83,13.17,40.7,20.11c9.44-6.09,21-17.72,21-17.72"/></g><g id="CARROT_LEAF_-_copie" data-name="CARROT LEAF - copie"><path class="cls-1" d="M52.52,4.87C47.84,7.73,41.83,17.09,40.7,24c9.44-6.1,21-17.73,21-17.73"/><path class="cls-1" d="M50.63,4.87C46,7.73,39.94,17.07,38.82,24c9.42-6.1,21-17.73,21-17.73"/><path class="cls-1" d="M54.69,1.51C50,4.38,44,13.74,42.87,20.67,52.29,14.58,63.82,3,63.82,3"/><path class="cls-1" d="M48.18,9.59C43.53,12.46,37.5,21.82,36.37,28.75c9.42-6.1,21-17.73,21-17.73"/><path class="cls-1" d="M44.8,10.53C40.11,13.4,34.11,22.75,33,29.69,42.4,23.6,53.93,12,53.93,12"/><path class="cls-1" d="M43.49,15.69C38.84,18.55,32.8,27.91,31.67,34.84c9.42-6.1,20.95-17.73,20.95-17.73"/><path class="cls-1" d="M42.68,14.45C38,17.31,32,26.67,30.85,33.6c9.44-6.09,21-17.7,21-17.7"/><path class="cls-1" d="M45.49,12.52c-4.65,2.86-10.68,12.22-11.81,19.15,9.42-6.09,21-17.72,21-17.72"/><path class="cls-1" d="M45.49,12.52c-4.65,2.86-10.68,12.22-11.81,19.15,9.42-6.09,21-17.72,21-17.72"/><path class="cls-1" d="M42.07,14.45c-4.66,2.86-10.69,12.22-11.8,19.15,9.4-6.09,20.93-17.7,20.93-17.7"/><path class="cls-1" d="M45.49,13.68C40.84,16.54,34.81,25.9,33.68,32.83c9.42-6.09,21-17.72,21-17.72"/><path class="cls-1" d="M53.16.21C48.48,3.08,42.47,12.44,41.34,19.37,50.77,13.28,62.29,1.65,62.29,1.65"/><path class="cls-1" d="M42.68,14.45C38,17.31,32,26.67,30.85,33.6c9.44-6.09,21-17.7,21-17.7"/><path class="cls-1" d="M44.22,10.53C39.53,13.4,33.52,22.75,32.4,29.69c9.42-6.09,21-17.72,21-17.72"/><path class="cls-1" d="M44.8,12.52C40.11,15.38,34.11,24.74,33,31.67c9.42-6.09,21-17.72,21-17.72"/><path class="cls-1" d="M45.49,9.79C40.84,12.66,34.81,22,33.68,29c9.42-6.09,21-17.73,21-17.73"/><path class="cls-1" d="M51.48,1.51C46.82,4.38,40.81,13.74,39.64,20.67,49.08,14.58,60.61,3,60.61,3"/><path class="cls-1" d="M45.49,10.53C40.85,13.4,34.81,22.75,33.68,29.69,43.1,23.6,54.63,12,54.63,12"/><path class="cls-1" d="M49.75,8.54C45.1,11.4,39.05,20.76,37.93,27.7c9.42-6.09,21-17.72,21-17.72"/><path class="cls-1" d="M54.69,4.1C50,7,44,16.32,42.87,23.26c9.42-6.1,21-17.73,21-17.73"/><path class="cls-1" d="M52.52,2.94C47.84,5.8,41.83,15.16,40.7,22.1c9.44-6.1,21-17.73,21-17.73"/><path class="cls-1" d="M50.71,6.1C46.08,9,40,18.33,38.9,25.27,48.31,19.16,59.84,7.53,59.84,7.53"/><path class="cls-1" d="M52,5.69c-2.93,1.45-6.73,6.18-7.44,9.68a97.7,97.7,0,0,0,13.19-9"/></g><path id="CARROT_BODY" data-name="CARROT BODY" class="cls-2" d="M9.5,73.22A150.23,150.23,0,0,0,24.69,57.11C28.87,52,34.42,46.26,35.08,39.33a15.92,15.92,0,0,0-2.42-9.51l-.21-.12c-4.27-.09-9.31,1.87-12,5.73-5.48,9-7.87,19.71-10.25,30.36-.07,2.62-1.17,4.68-.95,7.44"/></g><g id="APPLE"><g id="HEAD"><path class="cls-3" d="M92.47,35.33c.68-14.36,9-20.14,9-20.14"/></g><g id="BODY"><path class="cls-4" d="M93,33.6s2.69-1.93,14.68-1.93c10.39-1.82,11.82,9,1.08,44.09a160,160,0,0,0-30.87,0C67.16,40.67,68.59,29.85,79,31.67c12,0,14.69,1.93,14.69,1.93"/></g></g></g></g><g id="Calque_2-3" data-name="Calque 2"><g id="MEAT"><path id="LEFT_BONE" data-name="LEFT BONE" class="cls-5" d="M35,103.6s-18.9.84-21.54-4.19c-3.35-4.67-8.38-5.77-10-4.58C2.09,97-4.3,101.36,4.79,107.39v.1c-6.7.37-3.77,10.67-1.34,12.56,1.6,1.2,6.7.1,10.05-4.57,3.35-5.15,21.54-4.19,21.54-4.19"/><g id="MEAT-2"><path id="EXTERNAL_MEAT" data-name="EXTERNAL MEAT" class="cls-6" d="M69.54,123.72c-19.7,6.78-40.88,0-40.88,0-7.8-15.62-.15-32.52-.15-32.52h.14s21.2-6.78,40.89,0h.15l.1.23"/><path id="MEATY_PART" data-name="MEATY PART" class="cls-7" d="M69.66,123.6c7.28-14.55,1.13-30.22.26-32.28l-.14-.12s-7.66,16.9.14,32.52"/></g><path id="RIGHT_BONE" data-name="RIGHT BONE" class="cls-5" d="M68.6,103.6s18.9.84,21.54-4.19c3.35-4.67,8.42-5.77,10-4.58,1.36,2.2,7.75,6.53-1.34,12.56v.1c6.7.37,3.77,10.67,1.34,12.56-1.6,1.2-6.7.1-10-4.57-3.35-5.15-21.54-4.19-21.54-4.19"/></g></g></g></g></svg>