<svg xmlns="http://www.w3.org/2000/svg" viewBox="0 0 123.68 46.03"><defs><style>.cls-1{fill:#fcffe9;}.cls-2{fill:#a67c52;}.cls-3{fill:#ce4e58;}</style></defs><g id="Calque_2" data-name="Calque 2"><g id="MEAT"><path id="LEFT_BONE" class="cls-1" d="M41.8,18.41s-22.57,1-25.72-5c-4-5.58-10-6.89-12-5.47-1.63,2.62-9.25,7.8,1.6,15v.11c-8,.45-4.5,12.75-1.6,15,1.91,1.43,8,.12,12-5.46,4-6.15,25.72-5,25.72-5"/><g id="MEAT-2" data-name="MEAT"><path id="EXTERNAL_MEAT" class="cls-2" d="M83,42.43c-23.52,8.1-48.82,0-48.82,0C24.87,23.78,34,3.6,34,3.6h.17S59.49-4.5,83,3.6h.18l.12.28"/><path id="MEATY_PART" class="cls-3" d="M83.15,42.29c8.69-17.37,1.34-36.08.3-38.55l-.16-.14s-9.15,20.18.17,38.83"/></g><path id="RIGHT_BONE" class="cls-1" d="M81.88,18.41s22.57,1,25.72-5c4-5.58,10.05-6.89,12-5.47,1.63,2.62,9.25,7.8-1.6,15v.11c8,.45,4.5,12.75,1.6,15-1.91,1.43-8,.12-12-5.46-4-6.15-25.72-5-25.72-5"/></g></g></svg>