<svg xmlns="http://www.w3.org/2000/svg" xmlns:xlink="http://www.w3.org/1999/xlink" viewBox="0 0 140.71 103"><defs><style>.cls-1,.cls-4,.cls-5{fill:none;}.cls-2{clip-path:url(#clip-path);}.cls-3{fill:#009245;}.cls-4{stroke:#000;stroke-width:2.56px;}.cls-4,.cls-5{stroke-miterlimit:10;}.cls-5{stroke:#008a0b;stroke-width:2px;}.cls-6,.cls-8{font-size:8px;font-family:Oxygen-Regular, Oxygen;}.cls-7{fill:#c1272d;}.cls-8{fill:#fff;}</style><clipPath id="clip-path" transform="translate(-11.29 0)"><rect class="cls-1" width="51" height="51"/></clipPath></defs><title>RECIPE_VISUALS</title><g id="Layer_2" data-name="Layer 2"><g id="RECIPE_DETAILS" data-name="RECIPE DETAILS"><g id="RECIPE_VISUALS"><g id="BOOKMARK"><g class="cls-2"><g class="cls-2"><path class="cls-3" d="M16.06,38.59V15a1,1,0,0,1,1-1h18a1,1,0,0,1,1,1V38.52a1,1,0,0,1-1.74.73L27,31.88a1,1,0,0,0-1.43,0l-7.78,7.47a1,1,0,0,1-1.73-.74" transform="translate(-11.29 0)"/><path class="cls-4" d="M16.06,38.59V15a1,1,0,0,1,1-1h18a1,1,0,0,1,1,1V38.52a1,1,0,0,1-1.74.73L27,31.88a1,1,0,0,0-1.43,0l-7.78,7.47A1,1,0,0,1,16.06,38.59Z" transform="translate(-11.29 0)"/></g></g></g><polyline class="cls-5" points="0.71 64.65 11.05 75 32.71 53.35"/><text class="cls-6" transform="translate(59.65 93.99)">Style</text><g id="COUNTRY_FLAG"><rect class="cls-7" x="98.71" y="84" width="38" height="19" rx="1" ry="1"/><text class="cls-8" transform="translate(110.35 92.99)">Flag</text></g><g id="FILTER_PIC" data-name="FILTER PIC"><image width="612" height="612" transform="translate(39.71 0) scale(0.17 0.13)" xlink:href="../../../../../../../../Documents/istockphoto-1147544807-612x612.jpg"/></g></g></g></g></svg>