<svg xmlns="http://www.w3.org/2000/svg" viewBox="0 0 77.09 125.06"><defs><style>.cls-1{fill:none;stroke:#006837;stroke-miterlimit:10;stroke-width:4px;}.cls-2{fill:#c1272d;}</style></defs><g id="Calque_2" data-name="Calque 2"><g id="SPICES"><g id="CHILI_HEAD"><path class="cls-1" d="M49.26,39.3C58.18,12.85,76,1.7,76,1.7"/></g><path id="CHILI_BODY" class="cls-2" d="M0,124.94s.45-8.61,0-11.27c.31-2.81,5.31-6.58,5.31-6.58l9.07-23.38s3.55-9.36,8.14-14.84c-1.41-5.5,1.06-10,1.49-11.07s7.65-13.39,7.65-13.39S34.45,38,43.13,34.85c4.14-1.53,8.39-1.91,10.2,0s1.27,18.7,1.27,18.7c5.53,17.21-30.42,53.14-33.35,61.82-3.4,2.6-5.36,3.2-12.37,5.28C-.1,126.23,0,124.94,0,124.94Z"/></g></g></svg>