<svg xmlns="http://www.w3.org/2000/svg" viewBox="0 0 173.6 104.73"><defs><style>.cls-1{fill:#29abe2;}.cls-1,.cls-2,.cls-3,.cls-4{stroke:#000;stroke-miterlimit:10;stroke-width:3px;}.cls-2{fill:#8cc63f;}.cls-3{fill:#fcee21;}.cls-4{fill:#f15a24;}</style></defs><g id="Calque_2" data-name="Calque 2"><g id="DIFFICULTY"><g id="Calque_7" data-name="Calque 7"><path class="cls-1" d="M1.5,104.73V69.83c0-1.2,1-2.35,2.72-3.2,5.56-2.68,23.06-4.58,32.36.12,1.46.81,2.23,1.86,2.23,2.93v35.05"/><path class="cls-2" d="M45.51,104.73V51.59a6.1,6.1,0,0,1,2.72-4.87c5.57-4.08,23.06-7,32.36.18a5.87,5.87,0,0,1,2.23,4.47v53.36"/><path class="cls-3" d="M90.78,104.73V30.84a9.68,9.68,0,0,1,2.72-6.78c5.57-5.67,23.06-9.7,32.36.25a9.62,9.62,0,0,1,2.23,6.22v74.2"/><path class="cls-4" d="M134.79,104.73V16.53a12.86,12.86,0,0,1,2.72-8.09c5.57-6.77,23.06-11.57,32.36.3a12.91,12.91,0,0,1,2.23,7.42v88.57"/></g></g></g></svg>