<svg xmlns="http://www.w3.org/2000/svg" viewBox="0 0 160.14 41.29"><defs><style>.cls-1{fill:#43c0ea;}.cls-1,.cls-2,.cls-3{stroke:#000;stroke-miterlimit:10;}.cls-2{fill:none;}.cls-3{fill:#cdecf7;stroke-width:2px;}.cls-4{font-size:21px;font-family:LuckiestGuy-Regular, Luckiest Guy;}.cls-5{letter-spacing:-0.03em;}</style></defs><g id="Calque_2" data-name="Calque 2"><g id="SWEET"><g id="CANDY_EAR"><path id="OUTLINE" class="cls-1" d="M3.07,34.36c-5.78-19,0-30.95,0-30.95C38.44,14.18,41.84,18.88,41.84,18.88A69,69,0,0,1,3.07,34.36Z"/><path id="OUTLINE-2" data-name="OUTLINE" class="cls-1" d="M157.07,34.36c5.78-19,0-30.95,0-30.95C121.71,14.18,118.3,18.88,118.3,18.88A69,69,0,0,0,157.07,34.36Z"/><g id="WRINKLES"><path class="cls-2" d="M8.82,31.77c2.38-.28,4.76-.58,7.13-.92"/><path class="cls-2" d="M2.85,25.78c29.75-3.26,33.44-6.51,33.44-6.51"/><path class="cls-2" d="M4.23,29a225.23,225.23,0,0,0,25.34-3.86"/><path class="cls-2" d="M1.29,20.23C11,19.17,21,18.12,30.36,15.42"/><path class="cls-2" d="M2.85,23.49c10.94-1,22.8-2.48,33.24-6.38"/><path class="cls-2" d="M1.77,17.35c8.18-.85,16.44-1.46,24.4-3.65"/><path class="cls-2" d="M2.55,11.52C7,11,11.38,10.4,15.78,9.67"/><path class="cls-2" d="M1.51,15.08a224.55,224.55,0,0,0,23.23-3.55"/><path class="cls-2" d="M151.32,31.77c-2.38-.28-4.76-.58-7.13-.92"/><path class="cls-2" d="M157.29,25.78c-29.75-3.26-33.44-6.51-33.44-6.51"/><path class="cls-2" d="M155.91,29a225.58,225.58,0,0,1-25.34-3.86"/><path class="cls-2" d="M158.85,20.23c-9.7-1.06-19.66-2.11-29.07-4.81"/><path class="cls-2" d="M157.29,23.49c-10.94-1-22.8-2.48-33.24-6.38"/><path class="cls-2" d="M158.37,17.35c-8.18-.85-16.44-1.46-24.4-3.65"/><path class="cls-2" d="M157.59,11.52c-4.42-.52-8.83-1.12-13.23-1.85"/><path class="cls-2" d="M158.63,15.08a224.55,224.55,0,0,1-23.23-3.55"/></g></g><g id="BODY"><ellipse class="cls-3" cx="81.19" cy="20.65" rx="42.07" ry="19.65"/><text class="cls-4" transform="translate(48.53 28.09)">CAN<tspan class="cls-5" x="38.72" y="0">D</tspan><tspan x="50.25" y="0">Y</tspan></text></g></g></g></svg>