<svg xmlns="http://www.w3.org/2000/svg" viewBox="0 0 182.71 129.21"><defs><style>.cls-1,.cls-3{fill:none;stroke-miterlimit:10;}.cls-1{stroke:#006837;stroke-width:0.5px;}.cls-2{fill:#f7931e;}.cls-3{stroke:#603813;stroke-width:4px;}.cls-4{fill:#8cc63f;}</style></defs><g id="Calque_2" data-name="Calque 2"><g id="VEGGIES"><g id="CARROT"><g id="CARROT_LEAF"><path class="cls-1" d="M74,8.16c-8,4.89-18.25,20.87-20.18,32.72C69.93,30.47,89.62,10.61,89.62,10.61"/><path class="cls-1" d="M70.77,8.16C62.83,13.05,52.52,29,50.6,40.88,66.68,30.47,86.37,10.61,86.37,10.61"/><path class="cls-1" d="M77.7,2.43c-8,4.89-18.25,20.87-20.18,32.71C73.6,24.74,93.29,4.88,93.29,4.88"/><path class="cls-1" d="M66.59,16.23C58.65,21.12,48.34,37.1,46.42,48.94,62.5,38.53,82.19,18.67,82.19,18.67"/><path class="cls-1" d="M60.81,17.83c-8,4.89-18.25,20.87-20.18,32.71C56.71,40.14,76.4,20.28,76.4,20.28"/><path class="cls-1" d="M58.58,26.63C50.63,31.52,40.33,47.5,38.4,59.34,54.48,48.93,74.17,29.07,74.17,29.07"/><path class="cls-1" d="M57.2,24.52C49.26,29.41,39,45.39,37,57.23,53.11,46.82,72.8,27,72.8,27"/><path class="cls-1" d="M62,21.22c-7.95,4.89-18.25,20.87-20.18,32.71C57.91,43.53,77.6,23.66,77.6,23.66"/><path class="cls-1" d="M62,21.22c-7.95,4.89-18.25,20.87-20.18,32.71C57.91,43.53,77.6,23.66,77.6,23.66"/><path class="cls-1" d="M56.15,24.52C48.2,29.41,37.9,45.39,36,57.23,52.05,46.82,71.74,27,71.74,27"/><path class="cls-1" d="M62,23.2c-7.95,4.89-18.25,20.87-20.18,32.71C57.91,45.51,77.6,25.65,77.6,25.65"/><path class="cls-1" d="M75.09.21c-8,4.89-18.25,20.87-20.18,32.72C71,22.52,90.68,2.66,90.68,2.66"/><path class="cls-1" d="M57.2,24.52C49.26,29.41,39,45.39,37,57.23,53.11,46.82,72.8,27,72.8,27"/><path class="cls-1" d="M59.82,17.83c-8,4.89-18.26,20.87-20.18,32.71,16.08-10.4,35.77-30.26,35.77-30.26"/><path class="cls-1" d="M60.81,21.22c-8,4.89-18.25,20.87-20.18,32.71C56.71,43.53,76.4,23.66,76.4,23.66"/><path class="cls-1" d="M62,16.57c-7.95,4.89-18.25,20.87-20.18,32.71C57.91,38.88,77.6,19,77.6,19"/><path class="cls-1" d="M72.22,2.43C64.27,7.32,54,23.3,52,35.14,68.12,24.74,87.81,4.88,87.81,4.88"/><path class="cls-1" d="M62,17.83C54.06,22.72,43.76,38.7,41.83,50.54,57.91,40.14,77.6,20.28,77.6,20.28"/><path class="cls-1" d="M69.27,14.43C61.32,19.32,51,35.3,49.09,47.14c16.08-10.4,35.77-30.26,35.77-30.26"/><path class="cls-1" d="M77.7,6.84c-8,4.9-18.25,20.87-20.18,32.72C73.6,29.15,93.29,9.29,93.29,9.29"/><path class="cls-1" d="M74,4.86c-8,4.89-18.25,20.87-20.18,32.72C69.93,27.17,89.62,7.31,89.62,7.31"/><path class="cls-1" d="M70.91,10.27C63,15.16,52.66,31.14,50.73,43,66.81,32.57,86.5,12.71,86.5,12.71"/><path class="cls-1" d="M74,1.47c-8,4.9-18.25,20.87-20.18,32.72C69.93,23.78,89.62,3.92,89.62,3.92"/></g><g id="CARROT_LEAF_-_copie" data-name="CARROT_LEAF - copie"><path class="cls-1" d="M74,8.16c-8,4.89-18.25,20.87-20.18,32.72C69.93,30.47,89.62,10.61,89.62,10.61"/><path class="cls-1" d="M70.77,8.16C62.83,13.05,52.52,29,50.6,40.88,66.68,30.47,86.37,10.61,86.37,10.61"/><path class="cls-1" d="M77.7,2.43c-8,4.89-18.25,20.87-20.18,32.71C73.6,24.74,93.29,4.88,93.29,4.88"/><path class="cls-1" d="M66.59,16.23C58.65,21.12,48.34,37.1,46.42,48.94,62.5,38.53,82.19,18.67,82.19,18.67"/><path class="cls-1" d="M60.81,17.83c-8,4.89-18.25,20.87-20.18,32.71C56.71,40.14,76.4,20.28,76.4,20.28"/><path class="cls-1" d="M58.58,26.63C50.63,31.52,40.33,47.5,38.4,59.34,54.48,48.93,74.17,29.07,74.17,29.07"/><path class="cls-1" d="M57.2,24.52C49.26,29.41,39,45.39,37,57.23,53.11,46.82,72.8,27,72.8,27"/><path class="cls-1" d="M62,21.22c-7.95,4.89-18.25,20.87-20.18,32.71C57.91,43.53,77.6,23.66,77.6,23.66"/><path class="cls-1" d="M62,21.22c-7.95,4.89-18.25,20.87-20.18,32.71C57.91,43.53,77.6,23.66,77.6,23.66"/><path class="cls-1" d="M56.15,24.52C48.2,29.41,37.9,45.39,36,57.23,52.05,46.82,71.74,27,71.74,27"/><path class="cls-1" d="M62,23.2c-7.95,4.89-18.25,20.87-20.18,32.71C57.91,45.51,77.6,25.65,77.6,25.65"/><path class="cls-1" d="M75.09.21c-8,4.89-18.25,20.87-20.18,32.72C71,22.52,90.68,2.66,90.68,2.66"/><path class="cls-1" d="M57.2,24.52C49.26,29.41,39,45.39,37,57.23,53.11,46.82,72.8,27,72.8,27"/><path class="cls-1" d="M59.82,17.83c-8,4.89-18.26,20.87-20.18,32.71,16.08-10.4,35.77-30.26,35.77-30.26"/><path class="cls-1" d="M60.81,21.22c-8,4.89-18.25,20.87-20.18,32.71C56.71,43.53,76.4,23.66,76.4,23.66"/><path class="cls-1" d="M62,16.57c-7.95,4.89-18.25,20.87-20.18,32.71C57.91,38.88,77.6,19,77.6,19"/><path class="cls-1" d="M72.22,2.43C64.27,7.32,54,23.3,52,35.14,68.12,24.74,87.81,4.88,87.81,4.88"/><path class="cls-1" d="M62,17.83C54.06,22.72,43.76,38.7,41.83,50.54,57.91,40.14,77.6,20.28,77.6,20.28"/><path class="cls-1" d="M69.27,14.43C61.32,19.32,51,35.3,49.09,47.14c16.08-10.4,35.77-30.26,35.77-30.26"/><path class="cls-1" d="M77.7,6.84c-8,4.9-18.25,20.87-20.18,32.72C73.6,29.15,93.29,9.29,93.29,9.29"/><path class="cls-1" d="M74,4.86c-8,4.89-18.25,20.87-20.18,32.72C69.93,27.17,89.62,7.31,89.62,7.31"/><path class="cls-1" d="M70.91,10.27C63,15.16,52.66,31.14,50.73,43,66.81,32.57,86.5,12.71,86.5,12.71"/><path class="cls-1" d="M73.18,9.57c-5,2.47-11.49,10.54-12.7,16.52C70.6,20.84,83,10.8,83,10.8"/></g><path id="CARROT_BODY" class="cls-2" d="M.54,124.88A258.42,258.42,0,0,0,26.48,97.37C33.61,88.55,43.08,78.84,44.21,67a27.18,27.18,0,0,0-4.12-16.24l-.37-.19c-7.29-.17-15.89,3.18-20.54,9.77C9.82,75.72,5.75,94,1.68,112.19c-.12,4.47-2,8-1.63,12.71"/></g><g id="APPLE"><g id="HEAD"><path class="cls-3" d="M142.22,60.18c1.15-24.53,15.36-34.4,15.36-34.4"/></g><g id="BODY"><path class="cls-4" d="M143.14,57.23s4.59-3.3,25.07-3.3c17.74-3.12,20.18,15.36,1.84,75.28-26.36-2.91-52.71,0-52.71,0-18.34-59.92-15.9-78.4,1.83-75.28,20.49,0,25.07,3.3,25.07,3.3"/></g></g></g></g></svg>