<svg xmlns="http://www.w3.org/2000/svg" viewBox="0 0 23.36 161.39"><defs><style>.cls-1{fill:#ccc;}.cls-1,.cls-2,.cls-3{stroke:#000;stroke-miterlimit:10;}.cls-1,.cls-2{stroke-width:0.5px;}.cls-2{fill:#cdecf7;}.cls-3{fill:#ff0;stroke-width:0.25px;}</style></defs><title>FORK</title><g id="Layer_2" data-name="Layer 2"><g id="FORK"><path id="HEAD" class="cls-1" d="M3.64,71.18V69.49l5.08-11V40.71S.25,29.7.25,24.62V3.46c0-6.78,2.54,0,2.54,0V23.77s3.39,3.39,3.39,0V3.46c0-5.08,3.38-3.39,3.38,0V23.77c0,2.54,4.24,2.54,4.24,0V3.46c0-3.39,3.38-5.08,3.38,0V23.77c0,3.39,3.39,0,3.39,0V3.46s2.54-6.78,2.54,0V24.62c0,5.08-8.47,16.09-8.47,16.09V58.49l5.08,11v1.69"/><path id="HANDLE" class="cls-2" d="M3.64,71.18v75.35c0,20.32,16.08,18.63,16.08,0V71.18Z"/><g id="CIRCLES_DECORATION"><circle class="cls-3" cx="12.1" cy="87.27" r="4.23"/><circle class="cls-3" cx="12.1" cy="107.59" r="4.23"/><circle class="cls-3" cx="12.1" cy="127.91" r="4.23"/></g></g></g></svg>